<svg version="1.1" id="Ebene_1" xmlns="http://www.w3.org/2000/svg" x="0" y="0" width="410" height="50" xml:space="preserve"><path d="M59.455 47.395h-2.988v-25.7h14.326v2.654H59.455v9.404h10.652v2.654H59.455v10.988zM77.442 47.395h-2.918V20.043h2.918v27.352zM90.869 47.746c-2.848 0-5.095-.867-6.741-2.602s-2.47-4.143-2.47-7.225c0-3.105.765-5.572 2.294-7.4s3.583-2.742 6.161-2.742c2.414 0 4.324.794 5.73 2.382s2.109 3.683 2.109 6.284v1.846H84.681c.059 2.262.63 3.979 1.714 5.15s2.61 1.758 4.579 1.758c2.074 0 4.125-.434 6.152-1.301v2.602c-1.031.445-2.007.765-2.927.958s-2.03.29-3.33.29zm-.791-17.525c-1.547 0-2.78.504-3.7 1.512s-1.462 2.402-1.626 4.184h10.072c0-1.84-.41-3.249-1.23-4.228s-1.993-1.468-3.516-1.468zM102.231 22.908c0-.668.164-1.157.492-1.468s.738-.466 1.23-.466c.469 0 .873.158 1.213.475s.51.803.51 1.459-.17 1.146-.51 1.468-.744.483-1.213.483c-.492 0-.902-.161-1.23-.483s-.492-.812-.492-1.468zm3.165 24.487h-2.918V28.129h2.918v19.266zM123.38 42.139c0 1.793-.668 3.176-2.004 4.148s-3.211 1.459-5.625 1.459c-2.555 0-4.547-.404-5.977-1.213v-2.707c.926.469 1.919.838 2.979 1.107s2.083.404 3.067.404c1.523 0 2.695-.243 3.516-.729s1.23-1.228 1.23-2.224c0-.75-.325-1.392-.976-1.925s-1.919-1.163-3.806-1.89c-1.793-.668-3.067-1.251-3.823-1.749s-1.318-1.063-1.688-1.696-.554-1.389-.554-2.268c0-1.57.639-2.81 1.916-3.718s3.029-1.362 5.256-1.362c2.074 0 4.102.422 6.082 1.266l-1.037 2.373c-1.934-.797-3.686-1.195-5.256-1.195-1.383 0-2.426.217-3.129.65s-1.055 1.031-1.055 1.793c0 .516.132.955.396 1.318s.688.709 1.274 1.037 1.711.803 3.375 1.424c2.285.832 3.829 1.67 4.632 2.514s1.207 1.905 1.207 3.183zM135.106 47.746c-2.789 0-4.948-.858-6.478-2.575s-2.294-4.146-2.294-7.286c0-3.223.776-5.713 2.329-7.471s3.765-2.637 6.636-2.637c.926 0 1.852.1 2.777.299s1.652.434 2.18.703l-.896 2.479c-.645-.258-1.348-.472-2.109-.642s-1.436-.255-2.021-.255c-3.914 0-5.871 2.496-5.871 7.488 0 2.367.478 4.184 1.433 5.449s2.37 1.898 4.245 1.898c1.605 0 3.252-.346 4.939-1.037v2.584c-1.29.669-2.913 1.003-4.87 1.003zM157.304 47.395V34.932c0-1.57-.357-2.742-1.072-3.516s-1.834-1.16-3.357-1.16c-2.027 0-3.507.551-4.438 1.652s-1.397 2.906-1.397 5.414v10.072h-2.918V20.043h2.918v8.279c0 .996-.047 1.822-.141 2.479h.176c.574-.926 1.392-1.655 2.452-2.188s2.271-.8 3.63-.8c2.355 0 4.122.56 5.3 1.679s1.767 2.897 1.767 5.335v12.568h-2.92zM190.089 47.395V34.861c0-1.535-.328-2.687-.984-3.454s-1.676-1.151-3.059-1.151c-1.816 0-3.158.521-4.025 1.564s-1.301 2.648-1.301 4.816v10.758h-2.918V34.861c0-1.535-.328-2.687-.984-3.454s-1.682-1.151-3.076-1.151c-1.828 0-3.167.548-4.017 1.644s-1.274 2.892-1.274 5.388v10.107h-2.918V28.129h2.373l.475 2.637h.141c.551-.938 1.327-1.67 2.329-2.197s2.124-.791 3.366-.791c3.012 0 4.98 1.09 5.906 3.27h.141c.574-1.008 1.406-1.805 2.496-2.391s2.332-.879 3.727-.879c2.18 0 3.812.56 4.896 1.679s1.626 2.909 1.626 5.37v12.568h-2.92zM210.309 47.395l-.58-2.742h-.141c-.961 1.207-1.919 2.024-2.874 2.452s-2.147.642-3.577.642c-1.91 0-3.407-.492-4.491-1.477s-1.626-2.385-1.626-4.201c0-3.891 3.111-5.93 9.334-6.117l3.27-.105V34.65c0-1.512-.325-2.628-.976-3.349s-1.69-1.081-3.12-1.081c-1.605 0-3.422.492-5.449 1.477l-.896-2.232c.949-.516 1.989-.92 3.12-1.213s2.265-.439 3.401-.439c2.297 0 3.999.51 5.106 1.529s1.661 2.654 1.661 4.904v13.148h-2.162zm-6.592-2.057c1.816 0 3.243-.498 4.28-1.494s1.556-2.391 1.556-4.184v-1.74l-2.918.123c-2.32.082-3.993.442-5.019 1.081s-1.538 1.632-1.538 2.979c0 1.055.319 1.857.958 2.408s1.532.827 2.681.827zM230.945 47.395V34.932c0-1.57-.357-2.742-1.072-3.516s-1.834-1.16-3.357-1.16c-2.016 0-3.492.545-4.43 1.635s-1.406 2.889-1.406 5.396v10.107h-2.918V28.129h2.373l.475 2.637h.141c.598-.949 1.436-1.685 2.514-2.206s2.279-.782 3.604-.782c2.32 0 4.066.56 5.238 1.679s1.758 2.909 1.758 5.37v12.568h-2.92zM252.537 47.395V34.932c0-1.57-.357-2.742-1.072-3.516s-1.834-1.16-3.357-1.16c-2.016 0-3.492.545-4.43 1.635s-1.406 2.889-1.406 5.396v10.107h-2.918V28.129h2.373l.475 2.637h.141c.598-.949 1.436-1.685 2.514-2.206s2.279-.782 3.604-.782c2.32 0 4.066.56 5.238 1.679s1.758 2.909 1.758 5.37v12.568h-2.92zM261.962 40.732c0-1.523.407-2.871 1.222-4.043s2.276-2.355 4.386-3.551c-.996-1.113-1.673-1.957-2.03-2.531s-.642-1.172-.853-1.793-.316-1.266-.316-1.934c0-1.758.574-3.129 1.723-4.113s2.748-1.477 4.799-1.477c1.898 0 3.393.489 4.482 1.468s1.635 2.341 1.635 4.087c0 1.254-.398 2.411-1.195 3.472s-2.115 2.136-3.955 3.226l7.154 6.873c.656-.727 1.181-1.579 1.573-2.558s.724-2.048.993-3.208h2.953c-.797 3.352-1.998 5.895-3.604 7.629l5.256 5.115h-4.025l-3.252-3.129c-1.383 1.242-2.789 2.133-4.219 2.672s-3.023.809-4.781.809c-2.52 0-4.474-.621-5.862-1.863s-2.084-2.959-2.084-5.151zm8.016 4.395c2.824 0 5.168-.902 7.031-2.707l-7.682-7.453c-1.301.797-2.221 1.456-2.76 1.978s-.938 1.081-1.195 1.679-.387 1.277-.387 2.039c0 1.371.454 2.458 1.362 3.261s2.119 1.203 3.631 1.203zm-2.725-18.316c0 .809.211 1.579.633 2.312s1.143 1.614 2.162 2.646c1.512-.879 2.563-1.69 3.155-2.435s.888-1.603.888-2.575c0-.902-.302-1.638-.905-2.206s-1.409-.853-2.417-.853c-1.043 0-1.89.281-2.54.844s-.976 1.317-.976 2.267zM306.811 40.557c0 2.262-.82 4.025-2.461 5.291s-3.867 1.898-6.68 1.898c-3.047 0-5.391-.393-7.031-1.178v-2.883c1.055.445 2.203.797 3.445 1.055s2.473.387 3.691.387c1.992 0 3.492-.378 4.5-1.134s1.512-1.808 1.512-3.155c0-.891-.179-1.62-.536-2.188s-.955-1.093-1.793-1.573-2.112-1.025-3.823-1.635c-2.391-.855-4.099-1.869-5.124-3.041s-1.538-2.701-1.538-4.588c0-1.98.744-3.557 2.232-4.729s3.457-1.758 5.906-1.758c2.555 0 4.904.469 7.049 1.406l-.932 2.602c-2.121-.891-4.184-1.336-6.188-1.336-1.582 0-2.818.34-3.709 1.02s-1.336 1.623-1.336 2.83c0 .891.164 1.62.492 2.188s.882 1.09 1.661 1.564 1.972.999 3.577 1.573c2.695.961 4.55 1.992 5.563 3.094s1.523 2.532 1.523 4.29zM317.118 45.338c.516 0 1.014-.038 1.494-.114s.861-.155 1.143-.237v2.232c-.316.152-.782.278-1.397.378s-1.169.149-1.661.149c-3.727 0-5.59-1.963-5.59-5.889V30.396h-2.76V28.99l2.76-1.213 1.23-4.113h1.688v4.465h5.59v2.268h-5.59v11.338c0 1.16.275 2.051.826 2.672s1.306.931 2.267.931zM332.21 27.777c.855 0 1.623.07 2.303.211l-.404 2.707c-.797-.176-1.5-.264-2.109-.264-1.559 0-2.892.633-3.999 1.898s-1.661 2.842-1.661 4.729v10.336h-2.918V28.129h2.408l.334 3.568h.141c.715-1.254 1.576-2.221 2.584-2.9s2.114-1.02 3.321-1.02zM349.172 47.395l-.58-2.742h-.141c-.961 1.207-1.919 2.024-2.874 2.452s-2.147.642-3.577.642c-1.91 0-3.407-.492-4.491-1.477s-1.626-2.385-1.626-4.201c0-3.891 3.111-5.93 9.334-6.117l3.27-.105V34.65c0-1.512-.325-2.628-.976-3.349s-1.69-1.081-3.12-1.081c-1.605 0-3.422.492-5.449 1.477l-.896-2.232c.949-.516 1.989-.92 3.12-1.213s2.265-.439 3.401-.439c2.297 0 3.999.51 5.106 1.529s1.661 2.654 1.661 4.904v13.148h-2.162zm-6.592-2.057c1.816 0 3.243-.498 4.28-1.494s1.556-2.391 1.556-4.184v-1.74l-2.918.123c-2.32.082-3.993.442-5.019 1.081s-1.538 1.632-1.538 2.979c0 1.055.319 1.857.958 2.408s1.533.827 2.681.827zM359.609 28.129v12.498c0 1.57.357 2.742 1.072 3.516s1.834 1.16 3.357 1.16c2.016 0 3.489-.551 4.421-1.652s1.397-2.9 1.397-5.396V28.129h2.918v19.266h-2.408l-.422-2.584h-.158c-.598.949-1.427 1.676-2.487 2.18s-2.271.756-3.63.756c-2.344 0-4.099-.557-5.265-1.67s-1.749-2.895-1.749-5.344V28.129h2.954zM390.897 42.139c0 1.793-.668 3.176-2.004 4.148s-3.211 1.459-5.625 1.459c-2.555 0-4.547-.404-5.977-1.213v-2.707c.926.469 1.919.838 2.979 1.107s2.083.404 3.067.404c1.523 0 2.695-.243 3.516-.729s1.23-1.228 1.23-2.224c0-.75-.325-1.392-.976-1.925s-1.919-1.163-3.806-1.89c-1.793-.668-3.067-1.251-3.823-1.749s-1.318-1.063-1.688-1.696-.554-1.389-.554-2.268c0-1.57.639-2.81 1.916-3.718s3.029-1.362 5.256-1.362c2.074 0 4.102.422 6.082 1.266l-1.037 2.373c-1.934-.797-3.686-1.195-5.256-1.195-1.383 0-2.426.217-3.129.65s-1.055 1.031-1.055 1.793c0 .516.132.955.396 1.318s.688.709 1.274 1.037 1.711.803 3.375 1.424c2.285.832 3.829 1.67 4.632 2.514s1.207 1.905 1.207 3.183zM407.945 42.139c0 1.793-.668 3.176-2.004 4.148s-3.211 1.459-5.625 1.459c-2.555 0-4.547-.404-5.977-1.213v-2.707c.926.469 1.919.838 2.979 1.107s2.083.404 3.067.404c1.523 0 2.695-.243 3.516-.729s1.23-1.228 1.23-2.224c0-.75-.325-1.392-.976-1.925s-1.919-1.163-3.806-1.89c-1.793-.668-3.067-1.251-3.823-1.749s-1.318-1.063-1.688-1.696-.554-1.389-.554-2.268c0-1.57.639-2.81 1.916-3.718s3.029-1.362 5.256-1.362c2.074 0 4.102.422 6.082 1.266l-1.037 2.373c-1.934-.797-3.686-1.195-5.256-1.195-1.383 0-2.426.217-3.129.65s-1.055 1.031-1.055 1.793c0 .516.132.955.396 1.318s.688.709 1.274 1.037 1.711.803 3.375 1.424c2.285.832 3.829 1.67 4.632 2.514s1.207 1.905 1.207 3.183z"/><path fill="none" stroke="#58E60D" stroke-width=".854" d="m19.123 17.637-8.638 30.734 32.959-.004 8.08-30.73z"/><path fill="#14EB43" d="M51.66 17.919 43.281 48.08l-8.067-30.161-8.106 30.161-8.344-30.161z"/></svg>