<?xml version="1.0" encoding="utf-8"?>
<!-- Generator: Adobe Illustrator 13.0.0, SVG Export Plug-In . SVG Version: 6.00 Build 14948)  -->
<!DOCTYPE svg PUBLIC "-//W3C//DTD SVG 1.1//EN" "http://www.w3.org/Graphics/SVG/1.1/DTD/svg11.dtd">
<svg version="1.1" id="Ebene_1" xmlns="http://www.w3.org/2000/svg" xmlns:xlink="http://www.w3.org/1999/xlink" x="0px" y="0px"
	 width="410px" height="50px" viewBox="0 0 410 50" enable-background="new 0 0 410 50" xml:space="preserve">
<g>
	<path d="M59.455,47.395h-2.988V21.695h14.326v2.654H59.455v9.404h10.652v2.654H59.455V47.395z"/>
	<path d="M77.442,47.395h-2.918V20.043h2.918V47.395z"/>
	<path d="M90.869,47.746c-2.848,0-5.095-0.867-6.741-2.602s-2.47-4.143-2.47-7.225c0-3.105,0.765-5.572,2.294-7.4
		s3.583-2.742,6.161-2.742c2.414,0,4.324,0.794,5.73,2.382s2.109,3.683,2.109,6.284v1.846H84.681c0.059,2.262,0.63,3.979,1.714,5.15
		s2.61,1.758,4.579,1.758c2.074,0,4.125-0.434,6.152-1.301v2.602c-1.031,0.445-2.007,0.765-2.927,0.958S92.169,47.746,90.869,47.746
		z M90.078,30.221c-1.547,0-2.78,0.504-3.7,1.512s-1.462,2.402-1.626,4.184h10.072c0-1.84-0.41-3.249-1.23-4.228
		S91.601,30.221,90.078,30.221z"/>
	<path d="M102.231,22.908c0-0.668,0.164-1.157,0.492-1.468s0.738-0.466,1.23-0.466c0.469,0,0.873,0.158,1.213,0.475
		s0.51,0.803,0.51,1.459s-0.17,1.146-0.51,1.468s-0.744,0.483-1.213,0.483c-0.492,0-0.902-0.161-1.23-0.483
		S102.231,23.564,102.231,22.908z M105.396,47.395h-2.918V28.129h2.918V47.395z"/>
	<path d="M123.38,42.139c0,1.793-0.668,3.176-2.004,4.148s-3.211,1.459-5.625,1.459c-2.555,0-4.547-0.404-5.977-1.213v-2.707
		c0.926,0.469,1.919,0.838,2.979,1.107s2.083,0.404,3.067,0.404c1.523,0,2.695-0.243,3.516-0.729s1.23-1.228,1.23-2.224
		c0-0.75-0.325-1.392-0.976-1.925s-1.919-1.163-3.806-1.89c-1.793-0.668-3.067-1.251-3.823-1.749s-1.318-1.063-1.688-1.696
		s-0.554-1.389-0.554-2.268c0-1.57,0.639-2.81,1.916-3.718s3.029-1.362,5.256-1.362c2.074,0,4.102,0.422,6.082,1.266l-1.037,2.373
		c-1.934-0.797-3.686-1.195-5.256-1.195c-1.383,0-2.426,0.217-3.129,0.65s-1.055,1.031-1.055,1.793c0,0.516,0.132,0.955,0.396,1.318
		s0.688,0.709,1.274,1.037s1.711,0.803,3.375,1.424c2.285,0.832,3.829,1.67,4.632,2.514S123.38,40.861,123.38,42.139z"/>
	<path d="M135.106,47.746c-2.789,0-4.948-0.858-6.478-2.575s-2.294-4.146-2.294-7.286c0-3.223,0.776-5.713,2.329-7.471
		s3.765-2.637,6.636-2.637c0.926,0,1.852,0.1,2.777,0.299s1.652,0.434,2.18,0.703l-0.896,2.479
		c-0.645-0.258-1.348-0.472-2.109-0.642s-1.436-0.255-2.021-0.255c-3.914,0-5.871,2.496-5.871,7.488
		c0,2.367,0.478,4.184,1.433,5.449s2.37,1.898,4.245,1.898c1.605,0,3.252-0.346,4.939-1.037v2.584
		C138.686,47.412,137.063,47.746,135.106,47.746z"/>
	<path d="M157.304,47.395V34.932c0-1.57-0.357-2.742-1.072-3.516s-1.834-1.16-3.357-1.16c-2.027,0-3.507,0.551-4.438,1.652
		s-1.397,2.906-1.397,5.414v10.072h-2.918V20.043h2.918v8.279c0,0.996-0.047,1.822-0.141,2.479h0.176
		c0.574-0.926,1.392-1.655,2.452-2.188s2.271-0.8,3.63-0.8c2.355,0,4.122,0.56,5.3,1.679s1.767,2.897,1.767,5.335v12.568H157.304z"
		/>
	<path d="M190.089,47.395V34.861c0-1.535-0.328-2.687-0.984-3.454s-1.676-1.151-3.059-1.151c-1.816,0-3.158,0.521-4.025,1.564
		s-1.301,2.648-1.301,4.816v10.758h-2.918V34.861c0-1.535-0.328-2.687-0.984-3.454s-1.682-1.151-3.076-1.151
		c-1.828,0-3.167,0.548-4.017,1.644s-1.274,2.892-1.274,5.388v10.107h-2.918V28.129h2.373l0.475,2.637h0.141
		c0.551-0.938,1.327-1.67,2.329-2.197s2.124-0.791,3.366-0.791c3.012,0,4.98,1.09,5.906,3.27h0.141
		c0.574-1.008,1.406-1.805,2.496-2.391s2.332-0.879,3.727-0.879c2.18,0,3.812,0.56,4.896,1.679s1.626,2.909,1.626,5.37v12.568
		H190.089z"/>
	<path d="M210.309,47.395l-0.58-2.742h-0.141c-0.961,1.207-1.919,2.024-2.874,2.452s-2.147,0.642-3.577,0.642
		c-1.91,0-3.407-0.492-4.491-1.477s-1.626-2.385-1.626-4.201c0-3.891,3.111-5.93,9.334-6.117l3.27-0.105V34.65
		c0-1.512-0.325-2.628-0.976-3.349s-1.69-1.081-3.12-1.081c-1.605,0-3.422,0.492-5.449,1.477l-0.896-2.232
		c0.949-0.516,1.989-0.92,3.12-1.213s2.265-0.439,3.401-0.439c2.297,0,3.999,0.51,5.106,1.529s1.661,2.654,1.661,4.904v13.148
		H210.309z M203.717,45.338c1.816,0,3.243-0.498,4.28-1.494s1.556-2.391,1.556-4.184v-1.74l-2.918,0.123
		c-2.32,0.082-3.993,0.442-5.019,1.081s-1.538,1.632-1.538,2.979c0,1.055,0.319,1.857,0.958,2.408S202.568,45.338,203.717,45.338z"
		/>
	<path d="M230.945,47.395V34.932c0-1.57-0.357-2.742-1.072-3.516s-1.834-1.16-3.357-1.16c-2.016,0-3.492,0.545-4.43,1.635
		s-1.406,2.889-1.406,5.396v10.107h-2.918V28.129h2.373l0.475,2.637h0.141c0.598-0.949,1.436-1.685,2.514-2.206
		s2.279-0.782,3.604-0.782c2.32,0,4.066,0.56,5.238,1.679s1.758,2.909,1.758,5.37v12.568H230.945z"/>
	<path d="M252.537,47.395V34.932c0-1.57-0.357-2.742-1.072-3.516s-1.834-1.16-3.357-1.16c-2.016,0-3.492,0.545-4.43,1.635
		s-1.406,2.889-1.406,5.396v10.107h-2.918V28.129h2.373l0.475,2.637h0.141c0.598-0.949,1.436-1.685,2.514-2.206
		s2.279-0.782,3.604-0.782c2.32,0,4.066,0.56,5.238,1.679s1.758,2.909,1.758,5.37v12.568H252.537z"/>
	<path d="M261.962,40.732c0-1.523,0.407-2.871,1.222-4.043s2.276-2.355,4.386-3.551c-0.996-1.113-1.673-1.957-2.03-2.531
		s-0.642-1.172-0.853-1.793s-0.316-1.266-0.316-1.934c0-1.758,0.574-3.129,1.723-4.113s2.748-1.477,4.799-1.477
		c1.898,0,3.393,0.489,4.482,1.468s1.635,2.341,1.635,4.087c0,1.254-0.398,2.411-1.195,3.472s-2.115,2.136-3.955,3.226l7.154,6.873
		c0.656-0.727,1.181-1.579,1.573-2.558s0.724-2.048,0.993-3.208h2.953c-0.797,3.352-1.998,5.895-3.604,7.629l5.256,5.115h-4.025
		l-3.252-3.129c-1.383,1.242-2.789,2.133-4.219,2.672s-3.023,0.809-4.781,0.809c-2.52,0-4.474-0.621-5.862-1.863
		S261.962,42.924,261.962,40.732z M269.978,45.127c2.824,0,5.168-0.902,7.031-2.707l-7.682-7.453
		c-1.301,0.797-2.221,1.456-2.76,1.978s-0.938,1.081-1.195,1.679s-0.387,1.277-0.387,2.039c0,1.371,0.454,2.458,1.362,3.261
		S268.466,45.127,269.978,45.127z M267.253,26.811c0,0.809,0.211,1.579,0.633,2.312s1.143,1.614,2.162,2.646
		c1.512-0.879,2.563-1.69,3.155-2.435s0.888-1.603,0.888-2.575c0-0.902-0.302-1.638-0.905-2.206s-1.409-0.853-2.417-0.853
		c-1.043,0-1.89,0.281-2.54,0.844S267.253,25.861,267.253,26.811z"/>
	<path d="M306.811,40.557c0,2.262-0.82,4.025-2.461,5.291s-3.867,1.898-6.68,1.898c-3.047,0-5.391-0.393-7.031-1.178v-2.883
		c1.055,0.445,2.203,0.797,3.445,1.055s2.473,0.387,3.691,0.387c1.992,0,3.492-0.378,4.5-1.134s1.512-1.808,1.512-3.155
		c0-0.891-0.179-1.62-0.536-2.188s-0.955-1.093-1.793-1.573s-2.112-1.025-3.823-1.635c-2.391-0.855-4.099-1.869-5.124-3.041
		s-1.538-2.701-1.538-4.588c0-1.98,0.744-3.557,2.232-4.729s3.457-1.758,5.906-1.758c2.555,0,4.904,0.469,7.049,1.406l-0.932,2.602
		c-2.121-0.891-4.184-1.336-6.188-1.336c-1.582,0-2.818,0.34-3.709,1.02s-1.336,1.623-1.336,2.83c0,0.891,0.164,1.62,0.492,2.188
		s0.882,1.09,1.661,1.564s1.972,0.999,3.577,1.573c2.695,0.961,4.55,1.992,5.563,3.094S306.811,38.799,306.811,40.557z"/>
	<path d="M317.118,45.338c0.516,0,1.014-0.038,1.494-0.114s0.861-0.155,1.143-0.237v2.232c-0.316,0.152-0.782,0.278-1.397,0.378
		s-1.169,0.149-1.661,0.149c-3.727,0-5.59-1.963-5.59-5.889V30.396h-2.76V28.99l2.76-1.213l1.23-4.113h1.688v4.465h5.59v2.268h-5.59
		v11.338c0,1.16,0.275,2.051,0.826,2.672S316.157,45.338,317.118,45.338z"/>
	<path d="M332.21,27.777c0.855,0,1.623,0.07,2.303,0.211l-0.404,2.707c-0.797-0.176-1.5-0.264-2.109-0.264
		c-1.559,0-2.892,0.633-3.999,1.898s-1.661,2.842-1.661,4.729v10.336h-2.918V28.129h2.408l0.334,3.568h0.141
		c0.715-1.254,1.576-2.221,2.584-2.9S331.003,27.777,332.21,27.777z"/>
	<path d="M349.172,47.395l-0.58-2.742h-0.141c-0.961,1.207-1.919,2.024-2.874,2.452s-2.147,0.642-3.577,0.642
		c-1.91,0-3.407-0.492-4.491-1.477s-1.626-2.385-1.626-4.201c0-3.891,3.111-5.93,9.334-6.117l3.27-0.105V34.65
		c0-1.512-0.325-2.628-0.976-3.349s-1.69-1.081-3.12-1.081c-1.605,0-3.422,0.492-5.449,1.477l-0.896-2.232
		c0.949-0.516,1.989-0.92,3.12-1.213s2.265-0.439,3.401-0.439c2.297,0,3.999,0.51,5.106,1.529s1.661,2.654,1.661,4.904v13.148
		H349.172z M342.58,45.338c1.816,0,3.243-0.498,4.28-1.494s1.556-2.391,1.556-4.184v-1.74l-2.918,0.123
		c-2.32,0.082-3.993,0.442-5.019,1.081s-1.538,1.632-1.538,2.979c0,1.055,0.319,1.857,0.958,2.408S341.432,45.338,342.58,45.338z"/>
	<path d="M359.609,28.129v12.498c0,1.57,0.357,2.742,1.072,3.516s1.834,1.16,3.357,1.16c2.016,0,3.489-0.551,4.421-1.652
		s1.397-2.9,1.397-5.396V28.129h2.918v19.266h-2.408l-0.422-2.584h-0.158c-0.598,0.949-1.427,1.676-2.487,2.18
		s-2.271,0.756-3.63,0.756c-2.344,0-4.099-0.557-5.265-1.67s-1.749-2.895-1.749-5.344V28.129H359.609z"/>
	<path d="M390.897,42.139c0,1.793-0.668,3.176-2.004,4.148s-3.211,1.459-5.625,1.459c-2.555,0-4.547-0.404-5.977-1.213v-2.707
		c0.926,0.469,1.919,0.838,2.979,1.107s2.083,0.404,3.067,0.404c1.523,0,2.695-0.243,3.516-0.729s1.23-1.228,1.23-2.224
		c0-0.75-0.325-1.392-0.976-1.925s-1.919-1.163-3.806-1.89c-1.793-0.668-3.067-1.251-3.823-1.749s-1.318-1.063-1.688-1.696
		s-0.554-1.389-0.554-2.268c0-1.57,0.639-2.81,1.916-3.718s3.029-1.362,5.256-1.362c2.074,0,4.102,0.422,6.082,1.266l-1.037,2.373
		c-1.934-0.797-3.686-1.195-5.256-1.195c-1.383,0-2.426,0.217-3.129,0.65s-1.055,1.031-1.055,1.793c0,0.516,0.132,0.955,0.396,1.318
		s0.688,0.709,1.274,1.037s1.711,0.803,3.375,1.424c2.285,0.832,3.829,1.67,4.632,2.514S390.897,40.861,390.897,42.139z"/>
	<path d="M407.945,42.139c0,1.793-0.668,3.176-2.004,4.148s-3.211,1.459-5.625,1.459c-2.555,0-4.547-0.404-5.977-1.213v-2.707
		c0.926,0.469,1.919,0.838,2.979,1.107s2.083,0.404,3.067,0.404c1.523,0,2.695-0.243,3.516-0.729s1.23-1.228,1.23-2.224
		c0-0.75-0.325-1.392-0.976-1.925s-1.919-1.163-3.806-1.89c-1.793-0.668-3.067-1.251-3.823-1.749s-1.318-1.063-1.688-1.696
		s-0.554-1.389-0.554-2.268c0-1.57,0.639-2.81,1.916-3.718s3.029-1.362,5.256-1.362c2.074,0,4.102,0.422,6.082,1.266l-1.037,2.373
		c-1.934-0.797-3.686-1.195-5.256-1.195c-1.383,0-2.426,0.217-3.129,0.65s-1.055,1.031-1.055,1.793c0,0.516,0.132,0.955,0.396,1.318
		s0.688,0.709,1.274,1.037s1.711,0.803,3.375,1.424c2.285,0.832,3.829,1.67,4.632,2.514S407.945,40.861,407.945,42.139z"/>
</g>
<g>
	<polygon fill="none" stroke="#58E60D" stroke-width="0.854" points="19.123,17.637 10.485,48.371 43.444,48.367 51.524,17.637 	"/>
	<polygon fill="#14EB43" points="51.66,17.919 43.281,48.08 35.214,17.919 27.108,48.08 18.764,17.919 	"/>
</g>
</svg>
